<?xml version="1.0" standalone="no"?>
<!DOCTYPE svg PUBLIC "-//W3C//DTD SVG 20010904//EN"
 "http://www.w3.org/TR/2001/REC-SVG-20010904/DTD/svg10.dtd">
<svg version="1.0" xmlns="http://www.w3.org/2000/svg"
 width="700.000000pt" height="700.000000pt" viewBox="0 0 700.000000 700.000000"
 preserveAspectRatio="xMidYMid meet">
<metadata>
Created by potrace 1.11, written by Peter Selinger 2001-2013
</metadata>
<g transform="translate(0.000000,700.000000) scale(0.100000,-0.100000)"
fill="#000000" stroke="none">
<path d="M4045 6943 c-256 -47 -448 -228 -500 -470 -87 -409 279 -784 689
-707 343 65 554 393 471 729 -53 214 -218 379 -435 436 -45 11 -187 19 -225
12z"/>
<path d="M4620 5063 c-164 -53 -384 -113 -585 -159 -122 -28 -120 -28 -225
-49 -101 -21 -118 -24 -160 -30 -20 -3 -47 -8 -60 -11 -52 -10 -127 -23 -170
-29 -25 -3 -52 -8 -60 -10 -8 -2 -37 -6 -65 -9 -45 -5 -129 -17 -147 -22 -5
-1 -11 -2 -16 -3 -9 -1 -9 -248 1 -257 3 -4 26 -10 49 -15 41 -7 48 -5 158 61
236 140 304 162 479 156 64 -2 130 -7 146 -10 17 -3 46 -9 65 -12 115 -19 282
-90 400 -168 76 -50 260 -224 260 -246 0 -6 3 -9 8 -7 8 5 10 833 2 840 -3 2
-39 -7 -80 -20z"/>
<path d="M2750 4718 c-233 -72 -528 -155 -686 -193 -11 -3 -90 -19 -176 -37
l-158 -32 0 -96 0 -96 32 -2 c75 -6 224 -44 264 -67 66 -39 96 -98 109 -220 6
-50 7 -3383 1 -3410 -2 -11 -7 -40 -11 -65 -4 -25 -16 -61 -26 -82 -20 -40
-85 -98 -109 -98 -9 0 -20 -4 -26 -10 -9 -9 -127 -31 -242 -45 l-53 -7 3 -101
3 -101 885 0 885 0 1 102 c2 98 1 102 -20 103 -11 0 -30 2 -41 4 -11 2 -46 6
-77 9 -31 3 -92 13 -135 21 -200 41 -258 100 -278 285 -7 61 -10 1058 -3 1065
2 2 34 -7 70 -20 107 -39 267 -69 363 -68 37 0 320 86 341 103 6 6 11 49 12
102 0 51 1 112 1 134 1 37 4 43 34 55 215 88 410 408 463 759 36 240 39 498 9
670 -3 14 -7 41 -10 60 -14 86 -60 223 -105 317 -46 94 -136 221 -192 268 -54
48 -136 104 -181 125 -27 12 -50 28 -52 34 -30 102 -79 167 -152 204 -37 19
-136 49 -193 58 -14 2 -34 6 -46 9 -14 3 -72 -26 -180 -91 -87 -53 -166 -99
-174 -104 -14 -7 -15 21 -15 242 0 137 -2 251 -5 253 -3 1 -61 -15 -130 -37z
m828 -527 l71 -22 8 -47 c4 -26 8 -531 8 -1122 l0 -1075 -50 -12 c-157 -39
-332 -8 -515 91 -79 42 -161 99 -191 132 l-26 29 1 923 c1 603 4 925 11 930
153 110 287 171 430 195 52 9 189 -3 253 -22z"/>
<path d="M4704 3351 c0 -485 4 -881 8 -881 4 0 28 39 55 88 141 259 211 534
211 832 0 146 -9 217 -44 360 -41 164 -128 354 -208 455 l-21 27 -1 -881z"/>
<path d="M4635 2357 c-122 -166 -319 -347 -515 -473 -135 -87 -386 -214 -424
-214 -23 0 -30 -19 -33 -90 -3 -77 -29 -203 -51 -245 -61 -122 -163 -171 -417
-202 -27 -3 -70 -8 -95 -12 l-45 -6 0 -140 0 -139 1140 0 1139 0 1 138 c0 76
-2 139 -5 141 -3 2 -28 6 -57 9 -73 7 -219 34 -278 50 -127 34 -206 99 -243
198 -37 99 -45 203 -46 640 -1 230 -4 420 -7 422 -2 3 -31 -32 -64 -77z"/>
</g>
</svg>
